<svg width="129" height="42" viewBox="0 0 129 42" fill="none" xmlns="http://www.w3.org/2000/svg">
<path d="M12.842 13.264C12.842 14.0413 12.6587 14.7747 12.292 15.464C11.9253 16.1533 11.3387 16.718 10.532 17.158C9.72533 17.5833 8.69133 17.796 7.43 17.796H4.658V24H2.15V8.71H7.43C8.60333 8.71 9.59333 8.91533 10.4 9.326C11.2213 9.722 11.83 10.2647 12.226 10.954C12.6367 11.6433 12.842 12.4133 12.842 13.264ZM7.43 15.75C8.38333 15.75 9.09467 15.5373 9.564 15.112C10.0333 14.672 10.268 14.056 10.268 13.264C10.268 11.592 9.322 10.756 7.43 10.756H4.658V15.75H7.43ZM17.742 7.72V24H15.234V7.72H17.742ZM20.1988 17.884C20.1988 16.6667 20.4481 15.5887 20.9468 14.65C21.4601 13.7113 22.1494 12.9853 23.0148 12.472C23.8948 11.944 24.8628 11.68 25.9188 11.68C26.8721 11.68 27.7008 11.8707 28.4048 12.252C29.1234 12.6187 29.6954 13.0807 30.1208 13.638V11.878H32.6508V24H30.1208V22.196C29.6954 22.768 29.1161 23.2447 28.3828 23.626C27.6494 24.0073 26.8134 24.198 25.8748 24.198C24.8334 24.198 23.8801 23.934 23.0148 23.406C22.1494 22.8633 21.4601 22.1153 20.9468 21.162C20.4481 20.194 20.1988 19.1013 20.1988 17.884ZM30.1208 17.928C30.1208 17.092 29.9448 16.366 29.5928 15.75C29.2554 15.134 28.8081 14.6647 28.2508 14.342C27.6934 14.0193 27.0921 13.858 26.4468 13.858C25.8014 13.858 25.2001 14.0193 24.6428 14.342C24.0854 14.65 23.6308 15.112 23.2788 15.728C22.9414 16.3293 22.7728 17.048 22.7728 17.884C22.7728 18.72 22.9414 19.4533 23.2788 20.084C23.6308 20.7147 24.0854 21.1987 24.6428 21.536C25.2148 21.8587 25.8161 22.02 26.4468 22.02C27.0921 22.02 27.6934 21.8587 28.2508 21.536C28.8081 21.2133 29.2554 20.744 29.5928 20.128C29.9448 19.4973 30.1208 18.764 30.1208 17.928ZM46.8569 11.878L39.4209 29.698H36.8249L39.2889 23.802L34.5149 11.878H37.3089L40.7189 21.118L44.2609 11.878H46.8569Z" fill="#4731C5"/>
<path d="M53.6336 11.68C54.5723 11.68 55.4009 11.8707 56.1196 12.252C56.8529 12.6187 57.4249 13.0807 57.8356 13.638V11.878H60.3656V24.198C60.3656 25.3127 60.1309 26.3027 59.6616 27.168C59.1923 28.048 58.5103 28.7373 57.6156 29.236C56.7356 29.7347 55.6796 29.984 54.4476 29.984C52.8049 29.984 51.4409 29.5953 50.3556 28.818C49.2703 28.0553 48.6543 27.014 48.5076 25.694H50.9936C51.1843 26.3247 51.5876 26.8307 52.2036 27.212C52.8343 27.608 53.5823 27.806 54.4476 27.806C55.4596 27.806 56.2736 27.498 56.8896 26.882C57.5203 26.266 57.8356 25.3713 57.8356 24.198V22.174C57.4103 22.746 56.8309 23.23 56.0976 23.626C55.3789 24.0073 54.5576 24.198 53.6336 24.198C52.5776 24.198 51.6096 23.934 50.7296 23.406C49.8643 22.8633 49.1749 22.1153 48.6616 21.162C48.1629 20.194 47.9136 19.1013 47.9136 17.884C47.9136 16.6667 48.1629 15.5887 48.6616 14.65C49.1749 13.7113 49.8643 12.9853 50.7296 12.472C51.6096 11.944 52.5776 11.68 53.6336 11.68ZM57.8356 17.928C57.8356 17.092 57.6596 16.366 57.3076 15.75C56.9703 15.134 56.5229 14.6647 55.9656 14.342C55.4083 14.0193 54.8069 13.858 54.1616 13.858C53.5163 13.858 52.9149 14.0193 52.3576 14.342C51.8003 14.65 51.3456 15.112 50.9936 15.728C50.6563 16.3293 50.4876 17.048 50.4876 17.884C50.4876 18.72 50.6563 19.4533 50.9936 20.084C51.3456 20.7147 51.8003 21.1987 52.3576 21.536C52.9296 21.8587 53.5309 22.02 54.1616 22.02C54.8069 22.02 55.4083 21.8587 55.9656 21.536C56.5229 21.2133 56.9703 20.744 57.3076 20.128C57.6596 19.4973 57.8356 18.764 57.8356 17.928ZM66.1678 13.638C66.5344 13.022 67.0184 12.5453 67.6198 12.208C68.2358 11.856 68.9618 11.68 69.7978 11.68V14.276H69.1598C68.1771 14.276 67.4291 14.5253 66.9158 15.024C66.4171 15.5227 66.1678 16.388 66.1678 17.62V24H63.6598V11.878H66.1678V13.638ZM77.3611 24.198C76.2171 24.198 75.1831 23.9413 74.2591 23.428C73.3351 22.9 72.6091 22.1667 72.0811 21.228C71.5531 20.2747 71.2891 19.1747 71.2891 17.928C71.2891 16.696 71.5605 15.6033 72.1031 14.65C72.6458 13.6967 73.3865 12.9633 74.3251 12.45C75.2638 11.9367 76.3125 11.68 77.4711 11.68C78.6298 11.68 79.6785 11.9367 80.6171 12.45C81.5558 12.9633 82.2965 13.6967 82.8391 14.65C83.3818 15.6033 83.6531 16.696 83.6531 17.928C83.6531 19.16 83.3745 20.2527 82.8171 21.206C82.2598 22.1593 81.4971 22.9 80.5291 23.428C79.5758 23.9413 78.5198 24.198 77.3611 24.198ZM77.3611 22.02C78.0065 22.02 78.6078 21.866 79.1651 21.558C79.7371 21.25 80.1991 20.788 80.5511 20.172C80.9031 19.556 81.0791 18.808 81.0791 17.928C81.0791 17.048 80.9105 16.3073 80.5731 15.706C80.2358 15.09 79.7885 14.628 79.2311 14.32C78.6738 14.012 78.0725 13.858 77.4271 13.858C76.7818 13.858 76.1805 14.012 75.6231 14.32C75.0805 14.628 74.6478 15.09 74.3251 15.706C74.0025 16.3073 73.8411 17.048 73.8411 17.928C73.8411 19.2333 74.1711 20.2453 74.8311 20.964C75.5058 21.668 76.3491 22.02 77.3611 22.02ZM97.1104 11.878V24H94.6024V22.57C94.2064 23.0687 93.6858 23.4647 93.0404 23.758C92.4098 24.0367 91.7351 24.176 91.0164 24.176C90.0631 24.176 89.2051 23.978 88.4424 23.582C87.6944 23.186 87.1004 22.5993 86.6604 21.822C86.2351 21.0447 86.0224 20.106 86.0224 19.006V11.878H88.5084V18.632C88.5084 19.7173 88.7798 20.5533 89.3224 21.14C89.8651 21.712 90.6058 21.998 91.5444 21.998C92.4831 21.998 93.2238 21.712 93.7664 21.14C94.3238 20.5533 94.6024 19.7173 94.6024 18.632V11.878H97.1104ZM106.536 11.68C107.489 11.68 108.34 11.878 109.088 12.274C109.85 12.67 110.444 13.2567 110.87 14.034C111.295 14.8113 111.508 15.75 111.508 16.85V24H109.022V17.224C109.022 16.1387 108.75 15.31 108.208 14.738C107.665 14.1513 106.924 13.858 105.986 13.858C105.047 13.858 104.299 14.1513 103.742 14.738C103.199 15.31 102.928 16.1387 102.928 17.224V24H100.42V11.878H102.928V13.264C103.338 12.7653 103.859 12.3767 104.49 12.098C105.135 11.8193 105.817 11.68 106.536 11.68ZM113.871 17.884C113.871 16.6667 114.12 15.5887 114.619 14.65C115.132 13.7113 115.821 12.9853 116.687 12.472C117.567 11.944 118.542 11.68 119.613 11.68C120.405 11.68 121.182 11.856 121.945 12.208C122.722 12.5453 123.338 13 123.793 13.572V7.72H126.323V24H123.793V22.174C123.382 22.7607 122.81 23.2447 122.077 23.626C121.358 24.0073 120.529 24.198 119.591 24.198C118.535 24.198 117.567 23.934 116.687 23.406C115.821 22.8633 115.132 22.1153 114.619 21.162C114.12 20.194 113.871 19.1013 113.871 17.884ZM123.793 17.928C123.793 17.092 123.617 16.366 123.265 15.75C122.927 15.134 122.48 14.6647 121.923 14.342C121.365 14.0193 120.764 13.858 120.119 13.858C119.473 13.858 118.872 14.0193 118.315 14.342C117.757 14.65 117.303 15.112 116.951 15.728C116.613 16.3293 116.445 17.048 116.445 17.884C116.445 18.72 116.613 19.4533 116.951 20.084C117.303 20.7147 117.757 21.1987 118.315 21.536C118.887 21.8587 119.488 22.02 120.119 22.02C120.764 22.02 121.365 21.8587 121.923 21.536C122.48 21.2133 122.927 20.744 123.265 20.128C123.617 19.4973 123.793 18.764 123.793 17.928Z" fill="white"/>
<path d="M86.146 25.64V36H84.55V25.64H86.146ZM89.0534 27.264C88.7641 27.264 88.5214 27.166 88.3254 26.97C88.1294 26.774 88.0314 26.5313 88.0314 26.242C88.0314 25.9527 88.1294 25.71 88.3254 25.514C88.5214 25.318 88.7641 25.22 89.0534 25.22C89.3334 25.22 89.5714 25.318 89.7674 25.514C89.9634 25.71 90.0614 25.9527 90.0614 26.242C90.0614 26.5313 89.9634 26.774 89.7674 26.97C89.5714 27.166 89.3334 27.264 89.0534 27.264ZM89.8374 28.286V36H88.2414V28.286H89.8374ZM93.5288 25.64V36H91.9328V25.64H93.5288ZM98.4242 36.126C97.8176 36.126 97.2716 36.0187 96.7862 35.804C96.3102 35.58 95.9322 35.2813 95.6522 34.908C95.3722 34.5253 95.2229 34.1007 95.2042 33.634H96.8562C96.8842 33.9607 97.0382 34.236 97.3182 34.46C97.6076 34.6747 97.9669 34.782 98.3962 34.782C98.8442 34.782 99.1896 34.698 99.4322 34.53C99.6842 34.3527 99.8102 34.1287 99.8102 33.858C99.8102 33.5687 99.6702 33.354 99.3902 33.214C99.1196 33.074 98.6856 32.92 98.0882 32.752C97.5096 32.5933 97.0382 32.4393 96.6742 32.29C96.3102 32.1407 95.9929 31.912 95.7222 31.604C95.4609 31.296 95.3302 30.89 95.3302 30.386C95.3302 29.9753 95.4516 29.602 95.6942 29.266C95.9369 28.9207 96.2822 28.65 96.7302 28.454C97.1876 28.258 97.7102 28.16 98.2982 28.16C99.1756 28.16 99.8802 28.384 100.412 28.832C100.954 29.2707 101.243 29.8727 101.28 30.638H99.6842C99.6562 30.2927 99.5162 30.0173 99.2642 29.812C99.0122 29.6067 98.6716 29.504 98.2422 29.504C97.8222 29.504 97.5002 29.5833 97.2762 29.742C97.0522 29.9007 96.9402 30.1107 96.9402 30.372C96.9402 30.5773 97.0149 30.75 97.1642 30.89C97.3136 31.03 97.4956 31.142 97.7102 31.226C97.9249 31.3007 98.2422 31.3987 98.6622 31.52C99.2222 31.6693 99.6796 31.8233 100.034 31.982C100.398 32.1313 100.711 32.3553 100.972 32.654C101.234 32.9527 101.369 33.3493 101.378 33.844C101.378 34.2827 101.257 34.6747 101.014 35.02C100.772 35.3653 100.426 35.636 99.9782 35.832C99.5396 36.028 99.0216 36.126 98.4242 36.126ZM104.699 25.64V36H103.103V25.64H104.699ZM107.606 27.264C107.317 27.264 107.074 27.166 106.878 26.97C106.682 26.774 106.584 26.5313 106.584 26.242C106.584 25.9527 106.682 25.71 106.878 25.514C107.074 25.318 107.317 25.22 107.606 25.22C107.886 25.22 108.124 25.318 108.32 25.514C108.516 25.71 108.614 25.9527 108.614 26.242C108.614 26.5313 108.516 26.774 108.32 26.97C108.124 27.166 107.886 27.264 107.606 27.264ZM108.39 28.286V36H106.794V28.286H108.39ZM109.954 32.108C109.954 31.3333 110.112 30.6473 110.43 30.05C110.756 29.4527 111.195 28.9907 111.746 28.664C112.306 28.328 112.926 28.16 113.608 28.16C114.112 28.16 114.606 28.272 115.092 28.496C115.586 28.7107 115.978 29 116.268 29.364V25.64H117.878V36H116.268V34.838C116.006 35.2113 115.642 35.5193 115.176 35.762C114.718 36.0047 114.191 36.126 113.594 36.126C112.922 36.126 112.306 35.958 111.746 35.622C111.195 35.2767 110.756 34.8007 110.43 34.194C110.112 33.578 109.954 32.8827 109.954 32.108ZM116.268 32.136C116.268 31.604 116.156 31.142 115.932 30.75C115.717 30.358 115.432 30.0593 115.078 29.854C114.723 29.6487 114.34 29.546 113.93 29.546C113.519 29.546 113.136 29.6487 112.782 29.854C112.427 30.05 112.138 30.344 111.914 30.736C111.699 31.1187 111.592 31.576 111.592 32.108C111.592 32.64 111.699 33.1067 111.914 33.508C112.138 33.9093 112.427 34.2173 112.782 34.432C113.146 34.6373 113.528 34.74 113.93 34.74C114.34 34.74 114.723 34.6373 115.078 34.432C115.432 34.2267 115.717 33.928 115.932 33.536C116.156 33.1347 116.268 32.668 116.268 32.136ZM127.044 31.954C127.044 32.2433 127.025 32.5047 126.988 32.738H121.094C121.14 33.354 121.369 33.8487 121.78 34.222C122.19 34.5953 122.694 34.782 123.292 34.782C124.15 34.782 124.757 34.4227 125.112 33.704H126.834C126.6 34.4133 126.176 34.9967 125.56 35.454C124.953 35.902 124.197 36.126 123.292 36.126C122.554 36.126 121.892 35.9627 121.304 35.636C120.725 35.3 120.268 34.8333 119.932 34.236C119.605 33.6293 119.442 32.9293 119.442 32.136C119.442 31.3427 119.6 30.6473 119.918 30.05C120.244 29.4433 120.697 28.9767 121.276 28.65C121.864 28.3233 122.536 28.16 123.292 28.16C124.02 28.16 124.668 28.3187 125.238 28.636C125.807 28.9533 126.25 29.4013 126.568 29.98C126.885 30.5493 127.044 31.2073 127.044 31.954ZM125.378 31.45C125.368 30.862 125.158 30.3907 124.748 30.036C124.337 29.6813 123.828 29.504 123.222 29.504C122.671 29.504 122.2 29.6813 121.808 30.036C121.416 30.3813 121.182 30.8527 121.108 31.45H125.378Z" fill="white"/>
</svg>
